<svg xmlns="http://www.w3.org/2000/svg" viewBox="0 0 1042.03 479.48"><defs><style>.cls-1{fill:#12100b;}</style></defs><title>Ativo 1</title><g id="Camada_2" data-name="Camada 2"><g id="Camada_1-2" data-name="Camada 1"><path class="cls-1" d="M289.34,109.59c-1.47,2.89-3.48,4-6.94,1.72-4-2.66-8.85-1.1-11.94,2.62a5.83,5.83,0,0,1-5.19,1.37c-1.28-.43-3-3.31-2.61-4.31,2.22-5.41-.74-7.79-4.52-10.83-7.83-6.3-8.18-10.6-4.79-20.07,2-5.51,2.56-11.52,3.86-17.75H251.6V50.41c5.81-1.09,7.13-5.27,6.83-10.85-.25-4.64.18-9.31.34-14,.17-4.9-.72-10.32,6-12,.49-.12.72-1.29,1.28-2.37l-4.92-1.31c-.15-6.19,2.73-8.43,8.15-6.15,3.68,1.54,7.55,2.83,9.54,7,.72,1.49,2.49,2.47,4.39,4.25.54-5.66,3.89-5.72,7.6-5.56,23.24,1,46.5,2.79,69.74,2.59,17.71-.15,35.4-2.87,53.1-4.46,3-.26,6-.59,8.94-.87,23.17-2.15,46.32-4.53,69.51-6.33,9-.71,18.18-.12,27.68-.12-.27,6.33-5.57,12.47-.37,18.55.39,0,.77.18,1,.06,8.1-3.43,8.81-3.13,8.31,5.78-.78,13.58-1.91,27.15-3.1,40.7a40.21,40.21,0,0,1-2.23,9.18c-2.49,7.32-4.15,7.45-12,8.88-4.39.81-9,4.27-12,7.81-2.82,3.32-5.51,3.83-9.07,3.29-8.55-1.3-17.13-2.46-25.61-4.15-5.24-1-7.46,2.45-10.29,5.43s-1.75,5.93-.15,8.73a145.29,145.29,0,0,0,8.12,13c10,13.85,20.24,27.53,30.29,41.34,1.8,2.47,3.73,3.88,7,3.81,5.92-.13,10.6,3,15.37,6.16,6.16,4.06,8.17,3.38,12-2.9,7.25-12,14.27-24.2,21.84-36,2.73-4.25,6.81-7.63,10.2-11.48,6.44-7.31,13.23-14.37,19.12-22.12,4.9-6.44,4.85-9.6-1.31-14.61-9.13-7.41-7-17-6.4-26.14.65-10.78,2.71-21.47,4-32.21.35-2.92,1.55-4.61,4.43-3.7,8.4,2.68,17.85,1.55,25.48,7.24,1.07.8,3.92.36,5.26-.54,3.83-2.53,7.25-2.54,11,0,5.1,3.36,9.48-.26,13-1.25,1.61-3.42,2.83-6,4-8.6l6.12,3.13c-.12.54-.25,1.09-.38,1.63,5.66-1.54,11.24-3.74,17-4.46a336.75,336.75,0,0,1,34.29-2.84c15-.35,29.85-1.66,44.51-5.05a5.49,5.49,0,0,1,4.49,1.69c3.83,4.7,7.34,5.43,12.88,3.18,6.29-2.55,12.44-.48,18.31,2,.87.36,1.58,2.19,1.57,3.33,0,9.09.74,18.09-3.9,26.8-2.57,4.84.14,10.39,3.87,14.57,2,2.22,4.43,4,6.46,6.2,3,3.21,2.32,5.73-1.64,7.64-12.1,5.82-24.44,9-38.27,8.65-10.57-.26-21.17,4-31.88,5-10.22,1-16.38,7-23.06,13.65-9.29,9.21-19.68,17.3-29.21,26.29-14.71,13.87-29.17,28-43.57,42.22-3.57,3.53-6.92,7.22-6.39,13.25.35,4-1.83,7.27-6.83,7.46-5.18.2-8.19,3.29-11.27,7.5-7,9.6-14.81,18.68-22.7,27.6-3,3.42-3.15,5.76.2,8.6,7.21,6.12,14.31,12.37,21.6,18.38,4.28,3.53,7.63,7.14,7.23,13.36-.15,2.33,1.24,5.27,2.87,7.09a117.39,117.39,0,0,0,12.21,11.59c2.35,1.95,5,4.62,8.68,1.59.25-.21,3.23,1.72,3.15,2.45-.51,4.59.86,8.08,4.78,10.56s2.5,5.85.32,9.15c4.27,1.66,5.68.37,5.76-3.33.15-6.93.63-7,7-3.88,4.9,2.39,10.08,4.19,15.12,6.28,5.5,2.28,6.18,4,5.49,10-.42,3.65-.33,7-4.35,9-.68.33-.87,3.86,0,4.76,6.82,7.39,13.77,14.69,21,21.66,4.25,4.07,10.09,6.8,9.53,14.11-.06.76.86,1.79,1.58,2.39,4.86,4,4.88,4.13-.15,7.4,4.16,3.24,5.85,2,8-6.42h15.16c8.67,0,17.33,0,26,0,6.72.05,6.7.12,6.88,6.6,0,1.28.25,2.55.38,3.71a3.31,3.31,0,0,0,.86.18c9.23-2.07,9.88-1.91,7.5,7.52a68.19,68.19,0,0,0,.95,37.32c.89,3,.67,6.27,1,9.41a36.5,36.5,0,0,0,.57,4.43c1,4.32,2.8,8.62,2.76,12.91,0,3.69-1.11,7.56-5.3,10-10,5.83-9.88,6.08-21,6.63.58,6.44-3.87,6.16-8.46,6.14q-42.22-.18-84.47-.11c-2.58,0-5.16,1.22-7.74,1.83-.77.17-2.06.53-2.29.21-3.21-4.44-7.74-2-11.52-1.94-23.61.68-47.2,1.78-70.81,2.58a131.25,131.25,0,0,1-18-.51,12.73,12.73,0,0,1-7.06-3.55c-5.42-5.35-7.46-5.4-12.28.57a15,15,0,0,1-3.74,3.71,8.45,8.45,0,0,1-4.86,1.13c-.56-.06-1.24-2.43-1.26-3.76-.54-26.49-.56-52.95,3.4-79.26.78-5.23.55-10.6.8-15.91.11-2.35-.84-5.2,3.3-5.26,3.89-.06,6.54,1.22,7.15,5.28a43.68,43.68,0,0,1,0,5.7c3,.18,5.95.47,8.85.49,7.34.06,14.67.11,22-.06,6.33-.14,7.54-2,4.08-7.09q-12-17.74-24.71-35c-7.47-10.13-15.31-20-23.14-29.84a58.94,58.94,0,0,0-7.05-7c-2.54-2.29-4.49-.55-6.45,1.2-20.27,18.14-36.38,39.85-52.59,61.46l-9.33,12.45c8.6,0,16,0,23.39,0,7.93,0,8,.13,8.17,8.08.08,4.64.44,9.28.73,13.92.05.82.08,1.94.59,2.38,5.8,5.06,2.4,9.53-.12,14.8-5.44,11.36-7.37,23.73-8.37,36.22-.1,1.16-.14,2.33-.3,3.48-1,7.37-3.79,9.3-10.61,5.83-5.51-2.8-10.45-6.85-15.29-10.78-3.88-3.15-5.42-3.2-9,.41A98.62,98.62,0,0,1,405.93,467a12.86,12.86,0,0,1-6.92,2.09c-28.28.7-56.58,1.07-84.86,1.91-10.61.31-21.2,1.55-31.79,2.49a14,14,0,0,0-5.75,1.52c-6.46,3.81-11.77,2.47-17.15-2.39a13.46,13.46,0,0,0-8.48-3.28c-6.91.15-10.51-3.75-12.76-9.21a67.86,67.86,0,0,1-3.92-13.88c-1.86-10.49-.42-21.29-3.44-31.8-1.36-4.75-.17-10.25,0-15.4.12-4.46,2.68-7.4,6.82-8,7.06-1.05,14.37-3.46,21,2,.87.73,3.08,0,4.63-.26,4.55-.78,9.17-2.72,13.59-2.31,12.78,1.18,23.12-3.46,32.08-11.84,10.14-9.49,20.26-19,29.89-29,20.48-21.23,40.61-42.81,61-64.17,10.06-10.57,20.35-20.93,30.44-31.48,5.14-5.36,5.29-7.76.43-13.19-7.52-8.4-15.52-16.38-22.92-24.89C398,204.79,389,193.07,379.2,182c-15.09-17.11-30.69-33.77-45.81-50.85-5.14-5.81-9.41-12.37-14.27-18.43a6,6,0,0,0-4.05-2c-6.31-.18-12.64,0-19,0a51,51,0,0,1-6.77-1.09m311.7,218,7.35,5c-.12-.45-.24-.9-.35-1.35,1.51-.66,3-1.89,4.52-1.9,8.33,0,8.67-.22,9.72-8.3a16.26,16.26,0,0,1,.6-2.11c3.67,0,7.25-.31,6.25-4.38l-9.83-2c-4.62,5.62-15.94,5.37-18.26,15m56.15,17c-.45-.6-.89-1.21-1.33-1.81l-17.25,7.6c-.22,1.94-.5,4.44-.87,7.69,1.88-.9,2.85-1.73,3.86-1.8,4-.24,7.75-.53,8-5.9,0-.5,1.2-1,1.84-1.43l5.77-4.35m-58,81.71c.67-3.5,1.9-6.65,1.7-9.7-.25-3.73.75-4.79,4.35-4.47,1.44.12,3-.92,4.47-1.43-.14-.43-.29-.87-.44-1.3-5.67.32-13.22-2.17-14.65,6-.47,2.67-.83,9.06,4.57,10.94m39-99.13c-3,4.56-5.5,8.44-8,12.37a2.22,2.22,0,0,0-.33,1.81c.34.66,1.12,1.09,1.75,1.66,2.27-2,4.15-4.18,6.52-5.53,4.78-2.74,3.64-5.7,0-10.31m17-5.19c-4.9-3.3-7.23-2.66-10.84,3.05-1.71,2.69-.48,4.21,2.14,4.94l8.7-8M644.94,395c3.18-1.56,6.65-3.27,6.1-8.22-.13-1.16,0-2.82-.68-3.34a3.78,3.78,0,0,0-3.56-.26,5.61,5.61,0,0,0-1.78,3.67,80.43,80.43,0,0,0-.08,8.15M302.65,23.53c0-.43,0-.86,0-1.3L289.08,25.1l.18,2.25c1.8.14,3.8.84,5.36.29,2.82-1,5.37-2.7,8-4.11m-17,7.67L283.69,31c-.21,3.54-.43,7.08-.66,10.93,6.79-4.13,6.81-4.22,2.6-10.72M674.86,412.37l.74,1.19a39.13,39.13,0,0,0,5.58-5.15c.22-.29-2.24-2.69-3.81-4.52l-2.51,8.48M623.51,400c-5.09,3.17-6.49,7.07-4.63,12.13,5.43-.81-2.22-9.7,6-8.32L623.51,400M314.77,60.85c2-2.21,4.23-3.66,4.25-5.13s-2.42-2.74-4.62-5c-.16,3.49-.26,5.29-.3,7.09a21.21,21.21,0,0,0,.67,3m11.8-37c2.29.81,3.85,1.84,5.29,1.7,1.19-.11,2.36-1.53,3.28-2.59.28-.34-.31-2.06-.46-2a12.2,12.2,0,0,0-3.59.63,44.71,44.71,0,0,0-4.52,2.31"/><path class="cls-1" d="M820.3,74.77c4.07-1.49,8-2.62,11.63-4.42,1.21-.6,1.57-2.91,2.49-4.8H912c7.3,0,14.61,0,21.91,0,8.84,0,11.42,2.16,12.38,10.93,1.12,10.25,1.87,20.54,2.92,30.8A37.83,37.83,0,0,1,944.07,131c-3.5,6-2.38,9.58,2.5,12.17,4.46-3,8.67-6.06,13.15-8.65a5.6,5.6,0,0,1,4.94.13c1,.63,1.6,3.24,1.09,4.4-1.57,3.54-1.76,7.87-7.13,9.2-3.12.78-5.51,4.37-8.35,6.54a21.19,21.19,0,0,1-3.7,1.71,8.7,8.7,0,0,0-2.52,1.41c-4.84,5-1.36,19.51,5.39,20.61,11.6,1.91,23.34,3.16,35.08,4.07,10.6.83,21.27.75,31.91,1.27,3.08.14,6.11,1.19,9.19,1.43,4.15.31,9.05,2.47,11.16-3.74a2.63,2.63,0,0,1,2.36-1.06c1.14.45,3,1.68,2.88,2.29-.41,2.37-.84,5.32-2.42,6.81-6.47,6-7.19,8.1-3.92,16.25s4.07,16.28.28,24.65c-.91,2-1.1,5.42,0,7.06,3,4.44,1.58,8.41.55,12.84-.71,3.1-.11,6.51-.08,9.77,0,1.16.22,2.31.15,3.45-.52,8.45-1.38,16.88-1.49,25.33,0,3.17,1.85,6.33,2.4,9.57s-1.62,4.34-4.6,4.13c-7.15-.5-14.32-1.55-21.46-1.36-11.79.31-23.54,1.63-35.33,2.12-9.09.38-18.21,0-27.3.3-1.06,0-2.88,2-3,3.19-.33,5.47-.19,11-.18,16.45q.13,37.76.3,75.49c0,1.5,0,3,.07,4.5.59,8.76-.45,9.43-9.35,9.1-12.15-.45-24.35-.91-36.46-.13-6.35.4-12.88,2.71-18.72,5.45-6.33,3-11.74.09-17.44-.91-7.78-1.35-15.88-2.06-22.15-7.91-.69-.64-2.23-.53-3.37-.49-9.72.31-16.6-5-22.59-11.68a9.3,9.3,0,0,1-2.06-5.88c.43-15.95.9-31.9,1.89-47.82.22-3.58,2.5-7,3.88-10.51.23-.59.87-1,1.06-1.63,1.36-4.17-7.07-15.43-11.53-15.44-17.33-.05-34.66,0-52-.15-7.41-.05-13.18-4.18-18.64-8.47-1.11-.87-1.28-4.4-.47-6,3.44-6.69,2.61-11-4.06-14.51-4.43-2.34-7.07-5-4.22-10.71-5.59.06-6.9-2.85-6.6-7.58.76-11.63.47-23.36,1.93-34.89,1.22-9.64,4.52-19,6.5-28.58a63.09,63.09,0,0,0,1-12.82c0-3.17.9-4.53,4.25-4.43,6.16.18,12.33.05,18.5.07.82,0,1.92-.19,2.44.24,7.15,5.92,15.66,3.46,23.63,3.73a192.86,192.86,0,0,0,19.94-.86c7.54-.54,8.49-2.05,8.89-9.43.62-11.62,2-23.2,2.5-34.83.48-10.62-.06-21.3.49-31.92.27-5.14,2.14-10.19,3-15.33A19.94,19.94,0,0,0,816,92.4c-.56-3.08-2-6.06-2.21-9.14a118.77,118.77,0,0,1,.07-14.49,8.4,8.4,0,0,1,1.56-4.48,4.35,4.35,0,0,1,3.44-1.22c.55,0,1.27,1.8,1.34,2.82.18,2.8.06,5.61.06,8.88"/><path class="cls-1" d="M179.43,190c-9.86.74-19.72,1.53-29.59,2.19-8.8.59-17.62.88-26.41,1.59-10.41.83-20.78,2-31.18,2.93-4.52.38-8.06,1.42-8.59,6.86C83,210.37,82,217.1,81.17,223.84A50.11,50.11,0,0,1,80,230.68c-1.67,5.92-2.26,6.32-9,7.07-.39,7.44-6.79,5.38-10.91,6.12-16.43,2.95-32.83-.45-49.24-1-4.41-.16-8.26-5.06-8.26-9.66,0-7,1.53-14.47-.44-20.87-2.66-8.64-1.05-16.75-.63-25.1.17-3.29,1.55-6.59,1.37-9.83C2.47,169.13,1.4,160.9.67,152.66c-.33-3.71-1.84-7.79,2.41-10.13L0,134.75c13.86-1,26.47-5.18,39.48-1.32,2.85.85,5.91.94,8.83,1.59,8.88,1.95,16.66-.83,24.15-5.26C77.17,127,80.05,128,84,134c7.65-6.36,17-4.73,26-5.55,8.76-.8,17.52-1.7,26.29-2.47,2.14-.19,4.54-.67,6.4,0,12,4.68,24,.79,36-.08a14.58,14.58,0,0,1,3-.36c8.47,1.17,16-1.83,23.8-4.54,4.36-1.51,9.42-1.4,14.15-1.26,1.35,0,2.61,2.76,3.92,4.26l-.61,1.78,91-7c1.63,2.84-.06,5.74-2.32,8.84-1.44,2-2.82,4.47-2.95,6.81-.72,12.56-1,25.16-1.53,37.73-.15,3.3-1.21,6.55-1.33,9.84-.3,8.77-7.51,11.09-13.36,14.56-7.36,4.38-14.93,8.43-22.41,12.62-.29.16-.81.23-.87.44-1.86,6.29-8.58,6.38-12.69,9.84-4.28,3.6-9.88,5.73-13.81,9.61s-6.78,9.28-10,14c-1.36,2-2.52,4.15-3.85,6.19-7.86,12-11.29,25.87-15.84,39.25a35.11,35.11,0,0,1-1.64,3.58c3.83,4.83,3.61,4.48-1.75,8-2,1.33-3.56,4.53-4,7.09-2.08,12.62-4.07,25.27-5.4,38-1.4,13.39-2.43,26.86-2.8,40.32-.23,8.08,1.37,16.19,1.65,24.31a37.26,37.26,0,0,1-1.53,12c-.52,1.69-3.25,3.49-5.22,3.83-18.2,3.15-36.41,6.41-55,4.6-7.61-.73-15.21-1.93-22.82-2a41.57,41.57,0,0,0-14.63,2.41c-5,1.81-10.55,2-14.66,6.63-3,3.37-10.88-.31-11.71-4.95-1.08-6-2.11-11.94-2.93-17.94-.21-1.54-.13-3.76.8-4.71,5.83-6,6.26-13.71,6-21-.32-8.68,3-15.64,6.61-23,4.29-8.71,7.5-18,11.22-27a28.34,28.34,0,0,1,2.8-5.78c2.45-3.41,4.35-6.77,4.43-11.26A7.86,7.86,0,0,1,106,316c5.74-2.89,9.27-6.08,9.35-13.51.07-6.07,3.27-12.09,5-18.16C127,260.7,139.84,240.55,155,221.67c8.13-10.13,16.39-20.16,24.59-30.24,0-.46-.09-.92-.14-1.39M282.61,146.8c2.1,2.65,2.82,2.49,9.25-1.46-.43-1.53-1.1-3.94-2-7.21l-7.24,8.67m-81.56,123-4-4.94c-3.55,2.12-5.26,4.78-4.2,9.16l8.21-4.22m-26.76,16.16c6.29-2.66,9.89-8.13,7.49-12.21l-7.49,12.21M172.08,289c-3-.76-10,2.17-10.57,4-.17.54-.12,1.55.22,1.78.58.39,1.72.71,2.17.4,2.62-1.81,5.12-3.81,8.18-6.15m93.35-126.15c-4.65-1.1-8.93,1.74-11.55,8.08l11.55-8.08m5.4-4,5.89-8.71c-7.84,2.82-7.84,2.82-5.89,8.71m-23,1.58c6.65-1.72,9-4.45,8-8.72l-8,8.72M180.37,262.66l2,2.08,5.41-6.71-1.12-1.29-6.26,5.92m-24.63,22.9c5.7-.09,8.61-3.82,6.82-7.21l-6.82,7.21M262,144.67c5.32,1.4,7.24.19,9.61-5.38L262,144.67M170.73,269.78c2.91,2,4.05,1.37,7.93-5.25l-7.93,5.25m-21-89.92c.19.49.38,1,.56,1.47l7.45-1.37c-.91-1.71-1.48-2.75-2.1-3.92l-5.91,3.82"/></g></g></svg>