<?xml version="1.0" encoding="utf-8"?>
<!-- Generator: Adobe Illustrator 15.0.0, SVG Export Plug-In . SVG Version: 6.00 Build 0)  -->
<!DOCTYPE svg PUBLIC "-//W3C//DTD SVG 1.1//EN" "http://www.w3.org/Graphics/SVG/1.1/DTD/svg11.dtd">
<svg version="1.1" id="Layer_1" xmlns="http://www.w3.org/2000/svg" xmlns:xlink="http://www.w3.org/1999/xlink" x="0px" y="0px"
	 width="125.31px" height="30px" viewBox="0 0 125.31 30" enable-background="new 0 0 125.31 30" xml:space="preserve">
<g>
	<path fill="#FFFFFF" d="M28.259,14.13C28.259,6.339,21.92,0,14.13,0C6.338,0,0,6.339,0,14.13C0,21.921,6.338,28.26,14.13,28.26
		c1.854,0,3.653-0.353,5.352-1.05L25.188,30l-0.451-6.538C27.012,20.88,28.259,17.58,28.259,14.13z M14.351,18.355
		c1.485,0,2.864-0.849,3.607-2.122l1.804,1.061c-1.167,1.91-3.183,3.182-5.517,3.182c-3.5,0-6.365-2.864-6.365-6.365
		c0-3.5,2.864-6.365,6.365-6.365c2.334,0,4.35,1.273,5.516,3.183l-1.804,1.061c-0.636-1.273-2.015-2.122-3.607-2.122
		c-2.333,0-4.243,1.909-4.243,4.243C10.107,16.446,12.018,18.355,14.351,18.355z M14.245,5.625c-4.668,0-8.487,3.819-8.487,8.486
		c0,4.668,3.819,8.487,8.487,8.487c3.077,0,5.835-1.698,7.32-4.243l1.804,1.061c-1.804,3.183-5.198,5.305-9.124,5.305
		c-5.834,0-10.608-4.774-10.608-10.609S8.41,3.503,14.245,3.503c3.819,0,7.319,2.122,9.123,5.303l-1.804,1.062
		C20.08,7.322,17.427,5.625,14.245,5.625z"/>
	<g>
		<path fill="#FFFFFF" d="M101.903,17.737c0.534,0,0.98-0.103,1.336-0.306c0.354-0.203,0.639-0.471,0.851-0.802
			c0.212-0.331,0.359-0.709,0.442-1.133c0.084-0.423,0.126-0.851,0.126-1.281v-4.29h0.839v4.29c0,0.575-0.064,1.12-0.191,1.635
			c-0.128,0.515-0.333,0.969-0.617,1.36c-0.284,0.392-0.652,0.703-1.108,0.935c-0.455,0.231-1.01,0.348-1.665,0.348
			c-0.671,0-1.236-0.122-1.696-0.365c-0.459-0.244-0.828-0.565-1.107-0.965c-0.279-0.399-0.479-0.854-0.599-1.366
			c-0.12-0.511-0.181-1.039-0.181-1.581v-4.29h0.827v4.29c0,0.447,0.044,0.882,0.132,1.306s0.237,0.799,0.449,1.126
			c0.212,0.328,0.493,0.591,0.845,0.791S101.376,17.737,101.903,17.737z"/>
		<path fill="#FFFFFF" d="M107.24,18.432V9.925h5.584v0.743h-4.745v3.126h4.001v0.696h-4.001v3.942H107.24z"/>
		<path fill="#FFFFFF" d="M113.821,18.432V9.925h3.595c0.367,0,0.704,0.078,1.012,0.233c0.308,0.156,0.573,0.36,0.797,0.611
			s0.397,0.537,0.521,0.856c0.123,0.319,0.186,0.643,0.186,0.971c0,0.311-0.046,0.608-0.138,0.893
			c-0.092,0.284-0.221,0.539-0.384,0.766c-0.163,0.229-0.361,0.42-0.593,0.576c-0.231,0.156-0.491,0.261-0.778,0.317l2.084,3.284
			h-0.946l-2.001-3.139h-2.517v3.139H113.821z M114.659,14.549h2.78c0.248,0,0.474-0.054,0.677-0.162
			c0.204-0.108,0.378-0.254,0.521-0.438c0.144-0.183,0.255-0.392,0.336-0.623c0.079-0.232,0.119-0.475,0.119-0.73
			s-0.046-0.501-0.138-0.737c-0.092-0.234-0.216-0.44-0.371-0.617c-0.156-0.176-0.34-0.315-0.552-0.419s-0.434-0.156-0.665-0.156
			h-2.708V14.549z"/>
		<path fill="#FFFFFF" d="M120.912,17.365c0.177,0.12,0.402,0.224,0.678,0.312c0.275,0.088,0.585,0.132,0.929,0.132
			c0.431,0,0.776-0.078,1.036-0.234c0.26-0.155,0.457-0.385,0.593-0.689c0.136-0.303,0.224-0.676,0.264-1.12
			s0.061-0.948,0.061-1.516V9.925h0.838v4.325c0,0.647-0.029,1.236-0.09,1.768c-0.06,0.531-0.186,0.984-0.377,1.359
			c-0.192,0.375-0.472,0.667-0.839,0.874c-0.367,0.208-0.862,0.312-1.485,0.312c-0.72,0-1.335-0.176-1.846-0.527L120.912,17.365z"/>
	</g>
	<g>
		<path fill="#FFFFFF" d="M34.433,14.13c0-0.52,0.094-1.033,0.281-1.541c0.188-0.507,0.462-0.96,0.821-1.36
			c0.36-0.398,0.799-0.722,1.318-0.97c0.52-0.248,1.11-0.371,1.773-0.371c0.783,0,1.46,0.171,2.03,0.515
			c0.571,0.343,0.997,0.791,1.276,1.341l-1.27,0.875c-0.112-0.24-0.248-0.441-0.408-0.605s-0.331-0.294-0.515-0.389
			c-0.184-0.096-0.376-0.166-0.575-0.21c-0.2-0.043-0.396-0.065-0.587-0.065c-0.416,0-0.776,0.084-1.084,0.252
			c-0.308,0.167-0.563,0.385-0.767,0.652c-0.204,0.269-0.358,0.571-0.461,0.911c-0.104,0.339-0.156,0.677-0.156,1.013
			c0,0.375,0.06,0.736,0.18,1.084c0.12,0.347,0.29,0.652,0.509,0.916c0.22,0.264,0.483,0.475,0.791,0.635
			c0.307,0.16,0.645,0.239,1.012,0.239c0.192,0,0.392-0.024,0.6-0.072s0.405-0.124,0.593-0.227c0.188-0.104,0.361-0.238,0.522-0.402
			c0.159-0.163,0.287-0.361,0.383-0.592l1.354,0.778c-0.136,0.32-0.33,0.602-0.582,0.845c-0.251,0.244-0.535,0.45-0.851,0.617
			s-0.653,0.295-1.012,0.383c-0.359,0.088-0.711,0.132-1.054,0.132c-0.607,0-1.163-0.128-1.666-0.383
			c-0.503-0.256-0.937-0.588-1.3-1c-0.363-0.411-0.647-0.878-0.851-1.401C34.535,15.206,34.433,14.673,34.433,14.13z"/>
		<path fill="#FFFFFF" d="M45.911,18.563c-0.511,0-0.97-0.088-1.378-0.263c-0.407-0.176-0.753-0.414-1.037-0.713
			c-0.283-0.299-0.501-0.645-0.653-1.037c-0.151-0.392-0.228-0.802-0.228-1.233c0-0.44,0.076-0.855,0.228-1.247
			c0.152-0.391,0.37-0.736,0.653-1.036c0.284-0.3,0.629-0.538,1.037-0.713c0.408-0.176,0.867-0.264,1.378-0.264
			c0.512,0,0.968,0.088,1.372,0.264c0.404,0.175,0.747,0.413,1.031,0.713c0.283,0.3,0.501,0.645,0.653,1.036
			c0.151,0.392,0.228,0.807,0.228,1.247c0,0.431-0.076,0.842-0.228,1.233c-0.152,0.392-0.367,0.737-0.647,1.037
			c-0.279,0.299-0.624,0.538-1.03,0.713C46.881,18.475,46.422,18.563,45.911,18.563z M44.27,15.316c0,0.279,0.042,0.533,0.125,0.761
			c0.084,0.228,0.2,0.425,0.347,0.593s0.322,0.297,0.521,0.389c0.2,0.092,0.416,0.138,0.647,0.138s0.447-0.046,0.647-0.138
			c0.2-0.092,0.374-0.222,0.521-0.389c0.147-0.167,0.263-0.368,0.347-0.599c0.083-0.232,0.126-0.488,0.126-0.767
			c0-0.271-0.042-0.523-0.126-0.754c-0.084-0.232-0.2-0.432-0.347-0.6c-0.148-0.167-0.321-0.297-0.521-0.39
			c-0.2-0.091-0.415-0.137-0.647-0.137s-0.447,0.047-0.647,0.144c-0.199,0.095-0.374,0.228-0.521,0.395
			c-0.147,0.169-0.263,0.368-0.347,0.6C44.311,14.793,44.27,15.044,44.27,15.316z"/>
		<path fill="#FFFFFF" d="M53.171,18.563c-0.511,0-0.97-0.088-1.378-0.263c-0.407-0.176-0.752-0.414-1.037-0.713
			c-0.283-0.299-0.501-0.645-0.652-1.037c-0.152-0.392-0.229-0.802-0.229-1.233c0-0.44,0.077-0.855,0.229-1.247
			c0.151-0.391,0.369-0.736,0.652-1.036c0.284-0.3,0.629-0.538,1.037-0.713c0.408-0.176,0.867-0.264,1.378-0.264
			s0.968,0.088,1.372,0.264c0.403,0.175,0.747,0.413,1.03,0.713s0.501,0.645,0.653,1.036c0.151,0.392,0.228,0.807,0.228,1.247
			c0,0.431-0.076,0.842-0.228,1.233c-0.152,0.392-0.368,0.737-0.647,1.037c-0.28,0.299-0.624,0.538-1.03,0.713
			C54.142,18.475,53.683,18.563,53.171,18.563z M51.53,15.316c0,0.279,0.042,0.533,0.125,0.761c0.084,0.228,0.2,0.425,0.347,0.593
			c0.148,0.167,0.322,0.297,0.521,0.389c0.2,0.092,0.415,0.138,0.647,0.138c0.231,0,0.447-0.046,0.647-0.138
			s0.373-0.222,0.521-0.389s0.263-0.368,0.347-0.599c0.084-0.232,0.126-0.488,0.126-0.767c0-0.271-0.042-0.523-0.126-0.754
			c-0.084-0.232-0.199-0.432-0.347-0.6s-0.321-0.297-0.521-0.39c-0.2-0.091-0.416-0.137-0.647-0.137
			c-0.232,0-0.448,0.047-0.647,0.144c-0.199,0.095-0.373,0.228-0.521,0.395c-0.147,0.169-0.263,0.368-0.347,0.6
			C51.572,14.793,51.53,15.044,51.53,15.316z"/>
		<path fill="#FFFFFF" d="M61.271,13.554c-0.487,0.008-0.923,0.102-1.306,0.282c-0.384,0.179-0.659,0.449-0.827,0.808v3.798h-1.605
			v-6.278h1.473v1.342c0.112-0.216,0.244-0.409,0.396-0.581c0.152-0.171,0.316-0.322,0.491-0.449
			c0.176-0.128,0.354-0.226,0.533-0.294c0.18-0.067,0.354-0.102,0.521-0.102c0.088,0,0.154,0,0.198,0
			c0.043,0,0.085,0.004,0.125,0.013V13.554z"/>
		<path fill="#FFFFFF" d="M69.19,15.304c0-0.439,0.076-0.855,0.228-1.246s0.371-0.735,0.658-1.03
			c0.288-0.295,0.636-0.532,1.043-0.707c0.406-0.176,0.866-0.264,1.378-0.264c0.687,0,1.271,0.147,1.755,0.443
			c0.483,0.295,0.845,0.683,1.084,1.162l-1.569,0.479c-0.136-0.231-0.315-0.408-0.539-0.533c-0.224-0.124-0.472-0.186-0.742-0.186
			c-0.232,0-0.448,0.046-0.647,0.137c-0.199,0.092-0.374,0.22-0.521,0.384c-0.147,0.164-0.263,0.361-0.347,0.593
			c-0.084,0.232-0.126,0.487-0.126,0.767c0,0.279,0.043,0.535,0.132,0.767c0.088,0.231,0.205,0.431,0.353,0.599
			c0.148,0.167,0.321,0.297,0.521,0.389s0.412,0.138,0.636,0.138c0.286,0,0.553-0.072,0.796-0.216s0.414-0.319,0.509-0.527
			l1.57,0.479c-0.216,0.479-0.571,0.871-1.066,1.174c-0.495,0.305-1.091,0.456-1.785,0.456c-0.512,0-0.971-0.088-1.378-0.263
			c-0.407-0.176-0.754-0.414-1.043-0.713c-0.286-0.299-0.509-0.646-0.664-1.042C69.268,16.148,69.19,15.735,69.19,15.304z"/>
		<path fill="#FFFFFF" d="M79.184,18.563c-0.512,0-0.972-0.088-1.378-0.263c-0.407-0.176-0.754-0.414-1.037-0.713
			s-0.501-0.645-0.653-1.037c-0.151-0.392-0.228-0.802-0.228-1.233c0-0.44,0.076-0.855,0.228-1.247
			c0.152-0.391,0.37-0.736,0.653-1.036s0.63-0.538,1.037-0.713c0.406-0.176,0.866-0.264,1.378-0.264
			c0.511,0,0.968,0.088,1.371,0.264c0.403,0.175,0.747,0.413,1.03,0.713s0.501,0.645,0.653,1.036
			c0.15,0.392,0.227,0.807,0.227,1.247c0,0.431-0.076,0.842-0.227,1.233c-0.152,0.392-0.367,0.737-0.647,1.037
			c-0.279,0.299-0.623,0.538-1.03,0.713C80.153,18.475,79.694,18.563,79.184,18.563z M77.541,15.316
			c0,0.279,0.043,0.533,0.126,0.761c0.084,0.228,0.199,0.425,0.348,0.593c0.147,0.167,0.321,0.297,0.521,0.389
			c0.2,0.092,0.416,0.138,0.648,0.138c0.231,0,0.446-0.046,0.646-0.138c0.199-0.092,0.373-0.222,0.521-0.389
			c0.147-0.167,0.263-0.368,0.347-0.599c0.084-0.232,0.126-0.488,0.126-0.767c0-0.271-0.042-0.523-0.126-0.754
			c-0.084-0.232-0.199-0.432-0.347-0.6c-0.148-0.167-0.322-0.297-0.521-0.39c-0.2-0.091-0.415-0.137-0.646-0.137
			c-0.232,0-0.448,0.047-0.648,0.144c-0.199,0.095-0.373,0.228-0.521,0.395c-0.148,0.169-0.264,0.368-0.348,0.6
			C77.584,14.793,77.541,15.044,77.541,15.316z"/>
		<path fill="#FFFFFF" d="M93.297,18.442h-1.605V14.92c0-0.503-0.086-0.871-0.258-1.102c-0.172-0.232-0.409-0.348-0.713-0.348
			c-0.319,0-0.619,0.123-0.898,0.366c-0.28,0.243-0.479,0.561-0.6,0.952v3.654h-1.604V14.92c0-0.503-0.086-0.871-0.258-1.102
			c-0.173-0.232-0.41-0.348-0.714-0.348c-0.312,0-0.608,0.12-0.892,0.36c-0.284,0.239-0.485,0.555-0.605,0.946v3.666h-1.605v-6.278
			h1.45v1.163c0.23-0.408,0.549-0.721,0.952-0.941c0.403-0.219,0.864-0.33,1.384-0.33c0.526,0,0.935,0.128,1.222,0.383
			c0.288,0.256,0.472,0.571,0.552,0.947c0.256-0.432,0.579-0.761,0.971-0.989c0.391-0.228,0.838-0.341,1.342-0.341
			c0.383,0,0.699,0.072,0.946,0.215c0.248,0.144,0.439,0.332,0.575,0.563c0.136,0.231,0.229,0.495,0.281,0.79
			c0.052,0.296,0.078,0.596,0.078,0.899V18.442z"/>
		<path fill="#FFFFFF" d="M66.399,9.697v3.57c-0.208-0.359-0.497-0.651-0.868-0.875c-0.373-0.225-0.791-0.336-1.254-0.336
			c-0.406,0-0.781,0.084-1.125,0.252c-0.344,0.167-0.64,0.399-0.887,0.695c-0.248,0.295-0.441,0.639-0.581,1.03
			c-0.14,0.392-0.21,0.815-0.21,1.27c0,0.456,0.074,0.88,0.222,1.277c0.148,0.395,0.354,0.741,0.617,1.036
			c0.264,0.296,0.579,0.527,0.948,0.695c0.366,0.167,0.767,0.25,1.198,0.25c0.431,0,0.844-0.101,1.239-0.304
			c0.279-0.146,0.504-0.355,0.701-0.597v0.854h1.207c0.03,0.001,0.055,0.012,0.088,0.012c0.049,0,0.113-0.007,0.172-0.012h0.139
			v-0.01v-1.906V9.697H66.399z M66.152,16.562c-0.106,0.129-0.229,0.241-0.364,0.337c-0.136,0.095-0.283,0.169-0.443,0.221
			c-0.16,0.051-0.316,0.078-0.467,0.078c-0.256,0-0.49-0.048-0.701-0.144c-0.212-0.095-0.394-0.228-0.545-0.395
			c-0.152-0.168-0.272-0.364-0.359-0.587c-0.088-0.224-0.133-0.467-0.133-0.732c0-0.246,0.04-0.487,0.121-0.718
			c0.079-0.231,0.191-0.437,0.334-0.617c0.145-0.18,0.318-0.323,0.522-0.426c0.203-0.104,0.426-0.156,0.665-0.156
			c0.159,0,0.321,0.032,0.483,0.096c0.165,0.064,0.321,0.15,0.469,0.257c0.147,0.108,0.279,0.235,0.396,0.383
			c0.115,0.149,0.205,0.311,0.27,0.485v1.498C66.343,16.295,66.261,16.435,66.152,16.562z"/>
	</g>
</g>
</svg>
