<?xml version="1.0" encoding="utf-8"?>
<!-- Generator: Adobe Illustrator 15.0.0, SVG Export Plug-In . SVG Version: 6.00 Build 0)  -->
<!DOCTYPE svg PUBLIC "-//W3C//DTD SVG 1.1//EN" "http://www.w3.org/Graphics/SVG/1.1/DTD/svg11.dtd">
<svg version="1.1" id="Layer_1" xmlns="http://www.w3.org/2000/svg" xmlns:xlink="http://www.w3.org/1999/xlink" x="0px" y="0px"
	 width="140.715px" height="100px" viewBox="0 0 140.715 100" enable-background="new 0 0 140.715 100" xml:space="preserve">
<g>
	<path fill="#FFFFFF" d="M102.721,33.691C102.721,15.114,87.608,0,69.031,0C50.453,0,35.338,15.114,35.338,33.691
		c0,18.578,15.114,33.691,33.692,33.691c4.421,0,8.709-0.842,12.762-2.504l13.608,6.654l-1.076-15.59
		C99.747,49.787,102.721,41.919,102.721,33.691z M69.558,43.767c3.542,0,6.83-2.024,8.6-5.061l4.301,2.531
		c-2.782,4.553-7.589,7.587-13.153,7.587c-8.347,0-15.178-6.829-15.178-15.177c0-8.348,6.831-15.177,15.179-15.177
		c5.564,0,10.37,3.034,13.152,7.587l-4.301,2.531c-1.517-3.036-4.806-5.061-8.6-5.061c-5.564,0-10.118,4.553-10.118,10.119
		C59.439,39.213,63.994,43.767,69.558,43.767z M69.306,13.411c-11.131,0-20.237,9.106-20.237,20.237
		c0,11.129,9.105,20.237,20.236,20.237c7.336,0,13.912-4.047,17.454-10.118l4.3,2.53c-4.3,7.588-12.394,12.647-21.754,12.647
		c-13.912,0-25.295-11.384-25.295-25.296c0-13.913,11.383-25.295,25.296-25.295c9.105,0,17.453,5.059,21.754,12.648l-4.301,2.529
		C83.217,17.459,76.893,13.411,69.306,13.411z"/>
	<g>
		<path fill="#FFFFFF" d="M104.472,98.721c0.829,0,1.519-0.159,2.068-0.474c0.55-0.314,0.988-0.73,1.318-1.242
			c0.327-0.514,0.556-1.098,0.686-1.752c0.128-0.658,0.194-1.318,0.194-1.987v-6.641h1.3v6.641c0,0.891-0.101,1.735-0.298,2.532
			c-0.198,0.798-0.517,1.5-0.956,2.106c-0.438,0.606-1.009,1.088-1.714,1.447c-0.707,0.359-1.565,0.539-2.58,0.539
			c-1.039,0-1.915-0.189-2.625-0.566c-0.712-0.377-1.283-0.875-1.717-1.494c-0.432-0.618-0.743-1.322-0.927-2.113
			c-0.185-0.792-0.279-1.609-0.279-2.45v-6.641h1.282v6.641c0,0.692,0.065,1.368,0.203,2.022c0.136,0.655,0.367,1.238,0.695,1.744
			c0.327,0.507,0.762,0.915,1.308,1.225C102.976,98.565,103.656,98.721,104.472,98.721z"/>
		<path fill="#FFFFFF" d="M112.736,99.796V86.625h8.646v1.15h-7.347v4.841h6.196v1.077h-6.196v6.104H112.736z"/>
		<path fill="#FFFFFF" d="M122.926,99.796V86.625h5.566c0.568,0,1.091,0.12,1.566,0.361c0.477,0.241,0.889,0.557,1.233,0.946
			c0.347,0.39,0.617,0.832,0.808,1.327s0.287,0.995,0.287,1.502c0,0.482-0.071,0.944-0.213,1.383
			c-0.142,0.438-0.341,0.835-0.594,1.187c-0.253,0.353-0.559,0.649-0.917,0.891c-0.36,0.242-0.762,0.406-1.207,0.491l3.229,5.083
			h-1.465l-3.1-4.86h-3.896v4.86H122.926z M124.225,93.785h4.305c0.383,0,0.732-0.084,1.048-0.25
			c0.316-0.167,0.585-0.393,0.807-0.677c0.223-0.283,0.395-0.605,0.519-0.965c0.124-0.358,0.187-0.735,0.187-1.132
			c0-0.395-0.071-0.775-0.214-1.141c-0.143-0.364-0.333-0.683-0.575-0.956c-0.241-0.272-0.526-0.488-0.854-0.649
			c-0.327-0.161-0.671-0.241-1.029-0.241h-4.192V93.785z"/>
		<path fill="#FFFFFF" d="M133.907,98.145c0.272,0.185,0.622,0.346,1.05,0.482c0.425,0.137,0.905,0.204,1.437,0.204
			c0.667,0,1.202-0.122,1.604-0.362c0.403-0.241,0.709-0.596,0.918-1.066c0.211-0.47,0.348-1.048,0.41-1.735
			c0.062-0.685,0.092-1.467,0.092-2.347v-6.696h1.298v6.696c0,1.002-0.046,1.914-0.139,2.737c-0.093,0.823-0.288,1.525-0.585,2.105
			c-0.297,0.583-0.729,1.033-1.298,1.354c-0.569,0.322-1.337,0.483-2.301,0.483c-1.113,0-2.065-0.272-2.856-0.816L133.907,98.145z"
			/>
	</g>
	<g>
		<path fill="#FFFFFF" d="M0,93.118c0-0.804,0.145-1.599,0.435-2.383c0.291-0.788,0.715-1.488,1.271-2.107
			c0.556-0.618,1.236-1.118,2.041-1.502c0.804-0.383,1.718-0.574,2.746-0.574c1.212,0,2.26,0.266,3.144,0.797
			s1.543,1.225,1.976,2.078l-1.967,1.354c-0.173-0.37-0.383-0.683-0.631-0.936c-0.247-0.254-0.513-0.454-0.797-0.604
			c-0.284-0.147-0.581-0.256-0.891-0.324c-0.308-0.068-0.613-0.102-0.908-0.102c-0.645,0-1.203,0.13-1.68,0.389
			c-0.476,0.261-0.871,0.597-1.187,1.011c-0.316,0.415-0.554,0.884-0.715,1.41c-0.16,0.526-0.241,1.048-0.241,1.567
			c0,0.582,0.092,1.141,0.278,1.68c0.185,0.538,0.448,1.01,0.789,1.419c0.339,0.408,0.748,0.736,1.224,0.983
			c0.475,0.249,0.999,0.372,1.567,0.372c0.297,0,0.605-0.038,0.928-0.112c0.322-0.074,0.627-0.191,0.918-0.353
			c0.291-0.16,0.56-0.368,0.807-0.622c0.247-0.252,0.445-0.56,0.593-0.918l2.096,1.205c-0.21,0.496-0.511,0.932-0.899,1.309
			c-0.39,0.377-0.829,0.696-1.317,0.955c-0.489,0.26-1.011,0.458-1.568,0.594c-0.557,0.135-1.102,0.204-1.633,0.204
			c-0.94,0-1.8-0.197-2.579-0.594c-0.779-0.396-1.45-0.911-2.014-1.549c-0.562-0.637-1-1.361-1.316-2.171
			C0.157,94.784,0,93.958,0,93.118z"/>
		<path fill="#FFFFFF" d="M17.772,99.981c-0.792,0-1.502-0.137-2.133-0.408c-0.632-0.271-1.167-0.641-1.605-1.104
			c-0.439-0.464-0.776-0.998-1.011-1.605c-0.235-0.605-0.353-1.243-0.353-1.91c0-0.68,0.118-1.323,0.353-1.929
			c0.235-0.606,0.572-1.142,1.011-1.605c0.438-0.463,0.973-0.832,1.605-1.104c0.631-0.271,1.342-0.408,2.133-0.408
			c0.792,0,1.5,0.137,2.124,0.408c0.625,0.272,1.156,0.641,1.596,1.104c0.438,0.463,0.775,0.999,1.01,1.605
			c0.234,0.606,0.353,1.249,0.353,1.929c0,0.667-0.118,1.305-0.353,1.91c-0.235,0.607-0.569,1.141-1.002,1.605
			c-0.433,0.463-0.964,0.833-1.595,1.104C19.275,99.845,18.564,99.981,17.772,99.981z M15.231,94.954
			c0,0.433,0.064,0.826,0.195,1.179c0.129,0.353,0.308,0.658,0.537,0.918c0.229,0.26,0.498,0.46,0.807,0.602
			c0.31,0.143,0.643,0.214,1.002,0.214c0.359,0,0.692-0.071,1.002-0.214c0.308-0.142,0.577-0.342,0.806-0.602
			c0.229-0.26,0.408-0.568,0.539-0.927c0.13-0.359,0.194-0.754,0.194-1.187c0-0.422-0.064-0.811-0.194-1.168
			c-0.131-0.359-0.31-0.668-0.539-0.929c-0.229-0.259-0.498-0.46-0.806-0.603c-0.31-0.142-0.643-0.212-1.002-0.212
			c-0.36,0-0.692,0.073-1.002,0.222c-0.309,0.148-0.578,0.353-0.807,0.612c-0.229,0.26-0.408,0.568-0.537,0.927
			C15.295,94.145,15.231,94.533,15.231,94.954z"/>
		<path fill="#FFFFFF" d="M29.015,99.981c-0.791,0-1.501-0.137-2.133-0.408c-0.63-0.271-1.165-0.641-1.605-1.104
			c-0.438-0.464-0.776-0.998-1.011-1.605c-0.235-0.605-0.353-1.243-0.353-1.91c0-0.68,0.117-1.323,0.353-1.929
			c0.235-0.606,0.573-1.142,1.011-1.605c0.44-0.463,0.975-0.832,1.605-1.104c0.632-0.271,1.342-0.408,2.133-0.408
			c0.792,0,1.5,0.137,2.124,0.408c0.625,0.272,1.157,0.641,1.595,1.104c0.44,0.463,0.776,0.999,1.011,1.605
			c0.235,0.606,0.353,1.249,0.353,1.929c0,0.667-0.118,1.305-0.353,1.91c-0.235,0.607-0.568,1.141-1.002,1.605
			c-0.432,0.463-0.964,0.833-1.595,1.104C30.518,99.845,29.807,99.981,29.015,99.981z M26.474,94.954
			c0,0.433,0.064,0.826,0.194,1.179c0.13,0.353,0.31,0.658,0.538,0.918c0.229,0.26,0.499,0.46,0.808,0.602
			c0.31,0.143,0.643,0.214,1.001,0.214s0.693-0.071,1.003-0.214c0.308-0.142,0.578-0.342,0.806-0.602
			c0.229-0.26,0.408-0.568,0.538-0.927c0.13-0.359,0.195-0.754,0.195-1.187c0-0.422-0.065-0.811-0.195-1.168
			c-0.129-0.359-0.309-0.668-0.538-0.929c-0.229-0.259-0.498-0.46-0.806-0.603c-0.31-0.142-0.645-0.212-1.003-0.212
			s-0.691,0.073-1.001,0.222c-0.309,0.148-0.58,0.353-0.808,0.612c-0.228,0.26-0.407,0.568-0.538,0.927
			C26.538,94.145,26.474,94.533,26.474,94.954z"/>
		<path fill="#FFFFFF" d="M41.556,92.228c-0.755,0.012-1.429,0.156-2.022,0.436c-0.594,0.277-1.02,0.695-1.28,1.252v5.881h-2.487
			v-9.721h2.284v2.078c0.171-0.335,0.376-0.634,0.611-0.899c0.235-0.266,0.489-0.499,0.762-0.696
			c0.271-0.198,0.546-0.35,0.825-0.455c0.279-0.106,0.548-0.159,0.807-0.159c0.135,0,0.239,0,0.306,0
			c0.068,0,0.133,0.008,0.195,0.019V92.228z"/>
		<path fill="#FFFFFF" d="M53.819,94.936c0-0.681,0.118-1.324,0.352-1.931c0.235-0.604,0.577-1.137,1.02-1.594
			c0.446-0.458,0.984-0.823,1.614-1.095c0.631-0.271,1.342-0.408,2.135-0.408c1.063,0,1.969,0.229,2.716,0.687
			c0.75,0.458,1.308,1.058,1.68,1.8l-2.431,0.742c-0.21-0.358-0.488-0.634-0.833-0.825c-0.347-0.192-0.731-0.287-1.15-0.287
			c-0.359,0-0.694,0.07-1.003,0.212c-0.309,0.143-0.578,0.341-0.806,0.594c-0.23,0.254-0.408,0.56-0.538,0.918
			c-0.13,0.359-0.196,0.755-0.196,1.188c0,0.433,0.068,0.828,0.205,1.187c0.137,0.359,0.318,0.667,0.547,0.927
			c0.229,0.26,0.497,0.46,0.807,0.602c0.309,0.143,0.637,0.214,0.983,0.214c0.444,0,0.854-0.111,1.233-0.334
			c0.376-0.222,0.641-0.494,0.788-0.816l2.43,0.742c-0.333,0.743-0.883,1.349-1.65,1.818c-0.767,0.47-1.69,0.705-2.765,0.705
			c-0.791,0-1.503-0.137-2.133-0.408c-0.631-0.271-1.169-0.641-1.614-1.104c-0.446-0.464-0.789-1.001-1.031-1.613
			C53.939,96.243,53.819,95.604,53.819,94.936z"/>
		<path fill="#FFFFFF" d="M69.292,99.981c-0.792,0-1.503-0.137-2.133-0.408c-0.631-0.271-1.167-0.641-1.606-1.104
			c-0.439-0.464-0.776-0.998-1.011-1.605c-0.234-0.605-0.353-1.243-0.353-1.91c0-0.68,0.118-1.323,0.353-1.929
			c0.235-0.606,0.572-1.142,1.011-1.605c0.439-0.463,0.975-0.832,1.606-1.104c0.63-0.271,1.342-0.408,2.133-0.408
			c0.79,0,1.499,0.137,2.123,0.408c0.626,0.272,1.156,0.641,1.596,1.104s0.776,0.999,1.012,1.605
			c0.234,0.606,0.353,1.249,0.353,1.929c0,0.667-0.118,1.305-0.353,1.91c-0.235,0.607-0.568,1.141-1.002,1.605
			c-0.433,0.463-0.966,0.833-1.595,1.104C70.794,99.845,70.083,99.981,69.292,99.981z M66.75,94.954
			c0,0.433,0.066,0.826,0.196,1.179c0.131,0.353,0.308,0.658,0.537,0.918c0.23,0.26,0.498,0.46,0.807,0.602
			c0.311,0.143,0.644,0.214,1.003,0.214c0.358,0,0.692-0.071,1.002-0.214c0.309-0.142,0.576-0.342,0.808-0.602
			c0.229-0.26,0.407-0.568,0.536-0.927c0.13-0.359,0.196-0.754,0.196-1.187c0-0.422-0.066-0.811-0.196-1.168
			c-0.129-0.359-0.308-0.668-0.536-0.929c-0.231-0.259-0.499-0.46-0.808-0.603c-0.31-0.142-0.644-0.212-1.002-0.212
			c-0.359,0-0.692,0.073-1.003,0.222c-0.309,0.148-0.577,0.353-0.807,0.612c-0.229,0.26-0.406,0.568-0.537,0.927
			C66.816,94.145,66.75,94.533,66.75,94.954z"/>
		<path fill="#FFFFFF" d="M91.146,99.796h-2.484v-5.454c0-0.779-0.134-1.349-0.399-1.706c-0.266-0.358-0.636-0.539-1.104-0.539
			c-0.494,0-0.959,0.189-1.391,0.566c-0.434,0.377-0.741,0.869-0.928,1.474v5.659h-2.486v-5.454c0-0.779-0.133-1.349-0.398-1.706
			c-0.268-0.358-0.635-0.539-1.104-0.539c-0.481,0-0.943,0.187-1.383,0.556c-0.438,0.373-0.752,0.86-0.936,1.467v5.677h-2.486
			v-9.721h2.245v1.8c0.357-0.632,0.85-1.116,1.475-1.457c0.625-0.341,1.338-0.511,2.143-0.511c0.816,0,1.447,0.198,1.893,0.594
			c0.446,0.396,0.729,0.884,0.853,1.466c0.396-0.668,0.897-1.18,1.504-1.531c0.605-0.353,1.297-0.529,2.077-0.529
			c0.594,0,1.082,0.112,1.466,0.334c0.384,0.222,0.68,0.513,0.891,0.872c0.209,0.359,0.354,0.767,0.436,1.225
			c0.081,0.458,0.12,0.922,0.12,1.392V99.796z"/>
		<path fill="#FFFFFF" d="M49.497,86.253v5.53c-0.322-0.558-0.77-1.008-1.345-1.356c-0.575-0.347-1.223-0.52-1.94-0.52
			c-0.629,0-1.21,0.131-1.744,0.391c-0.53,0.259-0.989,0.618-1.372,1.077c-0.384,0.456-0.683,0.989-0.9,1.595
			c-0.216,0.605-0.325,1.261-0.325,1.967c0,0.703,0.115,1.362,0.344,1.976c0.229,0.612,0.547,1.147,0.956,1.604
			c0.408,0.458,0.895,0.816,1.465,1.077c0.569,0.259,1.188,0.388,1.856,0.388s1.307-0.156,1.918-0.472
			c0.434-0.225,0.78-0.55,1.086-0.924v1.321h1.87c0.046,0.003,0.085,0.018,0.135,0.018c0.076,0,0.176-0.011,0.268-0.018h0.214
			v-0.015V96.94V86.253H49.497z M49.116,96.884c-0.165,0.199-0.354,0.372-0.564,0.52c-0.211,0.149-0.439,0.263-0.686,0.344
			c-0.249,0.08-0.489,0.121-0.724,0.121c-0.395,0-0.758-0.076-1.085-0.224c-0.327-0.149-0.609-0.353-0.845-0.612
			c-0.235-0.26-0.421-0.563-0.556-0.909c-0.137-0.346-0.205-0.723-0.205-1.132c0-0.382,0.062-0.754,0.186-1.113
			c0.123-0.359,0.296-0.677,0.519-0.956c0.223-0.279,0.492-0.498,0.806-0.659c0.317-0.16,0.661-0.241,1.031-0.241
			c0.248,0,0.498,0.05,0.75,0.147c0.254,0.1,0.496,0.233,0.725,0.399c0.229,0.167,0.432,0.364,0.613,0.593
			c0.178,0.229,0.317,0.48,0.416,0.751v2.319C49.411,96.47,49.282,96.686,49.116,96.884z"/>
	</g>
</g>
</svg>
